<?xml version="1.0" encoding="UTF-8"?>
<svg id="Layer_2" xmlns="http://www.w3.org/2000/svg" viewBox="0 0 310.56 157.58">
  <defs>
    <style>
      .cls-1 {
        letter-spacing: -.07em;
      }

      .cls-2 {
        fill: none;
      }

      .cls-3, .cls-4 {
        fill: #ffffff;
      }

      .cls-4 {
        fill-rule: evenodd;
      }

      .cls-5 {
        fill: #ffffff;
        font-family: Helvetica-Bold, Helvetica;
        font-size: 22.24px;
        font-weight: 700;
      }
    </style>
  </defs>
  <g id="Layer_1-2" data-name="Layer_1">
    <g id="_x3C_Path_x3E_">
      <rect class="cls-2" width="310.56" height="117.57"/>
    </g>
    <g id="_x3C_Path_x3E_-2" data-name="_x3C_Path_x3E_">
      <polygon class="cls-4" points="69.02 40.05 69.02 29.94 28.29 29.94 28.29 87.15 40.3 87.15 40.3 63.04 65.44 63.04 65.44 52.94 40.3 52.94 40.3 40.05 69.02 40.05"/>
    </g>
    <g id="_x3C_Compound_Path_x3E_">
      <path class="cls-4" d="M73.39,87.15h11.22v-42.41h-11.22v42.41ZM73.39,29.31v10.42h11.22v-10.42h-11.22Z"/>
    </g>
    <g id="_x3C_Path_x3E_-3" data-name="_x3C_Path_x3E_">
      <path class="cls-4" d="M126.73,47.37c-2.63-2.49-6.25-3.74-10.86-3.74-5.78,0-10.03,2.44-12.73,7.32h-.16v-6.21h-10.74v42.41h11.21v-24.27c0-2.81.69-5.15,2.07-7,1.38-1.86,3.58-2.78,6.6-2.78s5.13.74,6.01,2.22c.87,1.49,1.31,3.55,1.31,6.21v25.62h11.21v-29.36c0-4.46-1.31-7.93-3.94-10.42Z"/>
    </g>
    <g id="_x3C_Compound_Path_x3E_-2" data-name="_x3C_Compound_Path_x3E_">
      <path class="cls-4" d="M176.2,54.17c-1.77-3.42-4.29-6.04-7.55-7.84-3.26-1.8-7.04-2.7-11.33-2.7-7.05,0-12.45,2.13-16.19,6.4-3.74,4.27-5.61,9.59-5.61,15.95,0,5.94,1.81,11.14,5.45,15.59,3.63,4.46,9.08,6.68,16.35,6.68,6.73,0,12.01-2.09,15.83-6.28,3.82-4.19,5.73-9.52,5.73-15.99,0-4.46-.89-8.4-2.67-11.81ZM157.31,78.87c-6.84,0-10.26-4.3-10.26-12.89,0-3.5.74-6.52,2.23-9.07,1.48-2.55,4.17-3.82,8.04-3.82s6.39,1.27,7.88,3.82c1.48,2.55,2.23,5.57,2.23,9.07,0,8.59-3.37,12.89-10.1,12.89Z"/>
    </g>
    <g id="_x3C_Path_x3E_-4" data-name="_x3C_Path_x3E_">
      <rect class="cls-3" x="184.03" y="29.94" width="11.22" height="57.21"/>
    </g>
    <g id="_x3C_Compound_Path_x3E_-3" data-name="_x3C_Compound_Path_x3E_">
      <path class="cls-4" d="M239.87,66.94c0-6.63-1.54-12.17-4.61-16.63-3.08-4.46-8.17-6.68-15.27-6.68s-12.08,2.09-15.39,6.28c-3.31,4.19-4.97,9.26-4.97,15.2,0,15.44,7.05,23.15,21.16,23.15,4.56,0,8.48-1.19,11.77-3.58,3.29-2.39,5.57-5.7,6.84-9.95h-11.45c-.43,1.33-1.29,2.43-2.59,3.3-1.3.88-2.82,1.31-4.57,1.31-6.21,0-9.57-3.47-10.1-10.42h29.19v-1.99ZM211.16,61.84c.32-2.76,1.19-4.96,2.63-6.6,1.43-1.64,3.44-2.46,6.05-2.46,2.39,0,4.36.81,5.93,2.42,1.56,1.62,2.45,3.83,2.66,6.64h-17.26Z"/>
    </g>
    <g id="_x3C_Path_x3E_-5" data-name="_x3C_Path_x3E_">
      <polygon class="cls-4" points="267.79 65.59 281.79 44.74 268.75 44.74 261.59 57.15 254.43 44.74 240.91 44.74 254.75 65.59 240.51 87.15 253.87 87.15 261.11 74.42 268.59 87.15 282.27 87.15 267.79 65.59"/>
    </g>
    <text class="cls-5" transform="translate(28.43 146.88)"><tspan x="0" y="0">XCEEDS XPEC</tspan><tspan class="cls-1" x="158.22" y="0">TA</tspan><tspan x="184.59" y="0">TIONS</tspan></text>
  </g>
</svg>